<?xml version="1.0" encoding="UTF-8" standalone="no"?>
<!-- Created with Inkscape (http://www.inkscape.org/) -->

<svg
   xmlns:dc="http://purl.org/dc/elements/1.1/"
   xmlns:cc="http://creativecommons.org/ns#"
   xmlns:rdf="http://www.w3.org/1999/02/22-rdf-syntax-ns#"
   xmlns:svg="http://www.w3.org/2000/svg"
   xmlns="http://www.w3.org/2000/svg"
   xmlns:sodipodi="http://sodipodi.sourceforge.net/DTD/sodipodi-0.dtd"
   xmlns:inkscape="http://www.inkscape.org/namespaces/inkscape"
   width="363.26953"
   height="55.792969"
   id="svg2"
   version="1.1"
   inkscape:version="0.48.3.1 r9886"
   sodipodi:docname="mokaddict_logo.svg">
  <defs
     id="defs4" />
  <sodipodi:namedview
     id="base"
     pagecolor="#ffffff"
     bordercolor="#666666"
     borderopacity="1.0"
     inkscape:pageopacity="0.0"
     inkscape:pageshadow="2"
     inkscape:zoom="1.4142136"
     inkscape:cx="129.26316"
     inkscape:cy="-51.937413"
     inkscape:document-units="px"
     inkscape:current-layer="layer2"
     showgrid="false"
     inkscape:window-width="1344"
     inkscape:window-height="1148"
     inkscape:window-x="1"
     inkscape:window-y="24"
     inkscape:window-maximized="0"
     fit-margin-top="0"
     fit-margin-left="0"
     fit-margin-right="0"
     fit-margin-bottom="0" />
  <metadata
     id="metadata7">
    <rdf:RDF>
      <cc:Work
         rdf:about="">
        <dc:format>image/svg+xml</dc:format>
        <dc:type
           rdf:resource="http://purl.org/dc/dcmitype/StillImage" />
        <dc:title></dc:title>
      </cc:Work>
    </rdf:RDF>
  </metadata>
  <g
     inkscape:groupmode="layer"
     id="layer2"
     inkscape:label="text"
     style="display:inline"
     transform="translate(-225.29829,-164.5121)">
    <text
       xml:space="preserve"
       style="font-size:12px;font-style:normal;font-variant:normal;font-weight:normal;font-stretch:normal;line-height:125%;letter-spacing:0px;word-spacing:0px;fill:#000000;fill-opacity:1;stroke:none;font-family:Verdana;-inkscape-font-specification:Verdana"
       x="218.26704"
       y="219.21523"
       id="text3824"
       sodipodi:linespacing="125%"><tspan
         sodipodi:role="line"
         id="tspan3826"
         x="218.26704"
         y="219.21523"
         style="font-size:72px">M<tspan
   style="fill:#ffffff;fill-opacity:1"
   id="tspan4101">o</tspan>kAddict</tspan></text>
  </g>
  <g
     inkscape:label="Layer 1"
     inkscape:groupmode="layer"
     id="layer1"
     transform="translate(-225.29829,-164.5121)">
    <g
       id="g4086">
      <path
         d="m 506.67396,419.36666 c -46.93141,-10.81811 -78.85067,-74.05128 -71.29367,-141.23525 6.36257,-56.56515 39.12187,-99.38827 79.04945,-103.33385 m -0.008,0.0547 c 8.9787,78.03155 2.86705,69.01203 -8.34692,119.05726 -14.95235,66.72876 -15.19956,72.78677 0.67919,125.42192"
         style="color:#000000;fill:none;stroke:#000000;stroke-width:2;stroke-linecap:round;stroke-linejoin:round;stroke-miterlimit:4;stroke-opacity:1;stroke-dashoffset:0;marker:none;visibility:visible;display:inline;overflow:visible;enable-background:accumulate"
         transform="matrix(0.17470891,0,0,0.15748053,209.84451,152.82597)"
         id="path3755-8"
         inkscape:connector-curvature="0" />
      <path
         d="m 532.337,175.70437 c 47.07324,9.47147 79.87006,71.77758 73.25375,139.16458 -5.75342,58.59859 -39.79382,103.06709 -81.08215,105.92126 m 7.82607,-244.91183 c 8.97871,78.03148 3.5202,68.6154 -7.69377,118.66057 -14.95236,66.72882 -16.08315,73.56313 -0.20434,126.19827"
         style="color:#000000;fill:none;stroke:#000000;stroke-width:2;stroke-linecap:round;stroke-linejoin:round;stroke-miterlimit:4;stroke-opacity:1;stroke-dashoffset:0;marker:none;visibility:visible;display:inline;overflow:visible;enable-background:accumulate"
         transform="matrix(0.17470891,0,0,0.15748053,210.3785,152.83933)"
         id="path3755-5"
         inkscape:connector-curvature="0" />
      <g
         id="g4082">
        <path
           style="color:#000000;fill:#804400;fill-opacity:1;stroke:#000000;stroke-width:0.125;stroke-linecap:round;stroke-linejoin:round;stroke-miterlimit:4;stroke-opacity:1;stroke-dasharray:none;stroke-dashoffset:0;marker:none;visibility:visible;display:inline;overflow:visible;enable-background:accumulate"
           d="m 297.06152,218.2979 c -5.60807,-1.88225 -9.83287,-7.75521 -10.9003,-15.15268 -0.73272,-5.07783 0.2165,-10.44252 2.60205,-14.70595 1.39829,-2.49901 3.43193,-4.68924 5.642,-6.07644 1.35468,-0.8503 3.22906,-1.54174 4.70231,-1.73465 l 0.42107,-0.0551 0.0329,0.19233 c 0.0575,0.33599 0.3998,3.3637 0.49636,4.39113 0.16408,1.74579 0.23955,3.4006 0.20043,4.39496 -0.0686,1.74393 -0.21272,2.53725 -0.86782,4.77731 -1.03726,3.54687 -1.84763,6.70604 -2.524,9.83961 -1.1649,5.3969 -1.0442,7.45753 0.76284,13.02418 0.22047,0.67917 0.40086,1.26277 0.40086,1.29688 0,0.10671 -0.19496,0.0682 -0.96875,-0.19155 l 0,0 z"
           id="path3900"
           inkscape:connector-curvature="0" />
        <path
           style="color:#000000;fill:#804400;fill-opacity:1;stroke:#000000;stroke-width:0.125;stroke-linecap:round;stroke-linejoin:round;stroke-miterlimit:4;stroke-opacity:1;stroke-dasharray:none;stroke-dashoffset:0;marker:none;visibility:visible;display:inline;overflow:visible;enable-background:accumulate"
           d="m 302.13909,218.82542 c -0.10355,-0.16887 -1.08375,-3.37851 -1.31973,-4.32143 -0.41643,-1.66394 -0.54768,-2.54367 -0.58561,-3.92494 -0.0533,-1.94277 0.1266,-3.29595 0.88876,-6.68364 0.62583,-2.78171 1.44001,-5.95337 2.23818,-8.71894 0.81024,-2.80738 0.91687,-3.40626 0.96374,-5.41261 0.0336,-1.43941 -0.0193,-2.6041 -0.20561,-4.52489 -0.0972,-1.00255 -0.43729,-3.94322 -0.49629,-4.29177 l -0.0335,-0.19802 0.3925,0.0914 c 1.13043,0.26334 2.6658,0.91447 3.73625,1.58452 5.4145,3.38919 8.75671,10.74239 8.37414,18.42399 -0.16621,3.33713 -0.93394,6.38325 -2.31146,9.1711 -1.48026,2.9958 -3.44263,5.28919 -5.90779,6.90436 -0.69455,0.45506 -2.12145,1.14203 -2.91386,1.40285 -1.06946,0.35201 -2.72946,0.64518 -2.81971,0.49799 l 0,0 z"
           id="path3902"
           inkscape:connector-curvature="0" />
      </g>
    </g>
  </g>
</svg>
